<mxfile host="app.diagrams.net" modified="2023-09-21T02:07:39.865Z" agent="Mozilla/5.0 (Windows NT 10.0; Win64; x64) AppleWebKit/537.36 (KHTML, like Gecko) Chrome/116.0.0.0 Safari/537.36" etag="3TcuC4UjXLpcqcwskq3_" version="21.7.5" type="device">
  <diagram name="Page-1" id="2YBvvXClWsGukQMizWep">
    <mxGraphModel dx="1878" dy="525" grid="1" gridSize="10" guides="1" tooltips="1" connect="1" arrows="1" fold="1" page="1" pageScale="1" pageWidth="850" pageHeight="1100" math="0" shadow="0">
      <root>
        <mxCell id="0" />
        <mxCell id="1" parent="0" />
        <mxCell id="aM9ryv3xv72pqoxQDRHE-1" value="Tamagotchi" style="shape=umlLifeline;perimeter=lifelinePerimeter;whiteSpace=wrap;html=1;container=0;dropTarget=0;collapsible=0;recursiveResize=0;outlineConnect=0;portConstraint=eastwest;newEdgeStyle={&quot;edgeStyle&quot;:&quot;elbowEdgeStyle&quot;,&quot;elbow&quot;:&quot;vertical&quot;,&quot;curved&quot;:0,&quot;rounded&quot;:0};" parent="1" vertex="1">
          <mxGeometry x="40" y="40" width="100" height="300" as="geometry" />
        </mxCell>
        <mxCell id="aM9ryv3xv72pqoxQDRHE-2" value="" style="html=1;points=[];perimeter=orthogonalPerimeter;outlineConnect=0;targetShapes=umlLifeline;portConstraint=eastwest;newEdgeStyle={&quot;edgeStyle&quot;:&quot;elbowEdgeStyle&quot;,&quot;elbow&quot;:&quot;vertical&quot;,&quot;curved&quot;:0,&quot;rounded&quot;:0};" parent="aM9ryv3xv72pqoxQDRHE-1" vertex="1">
          <mxGeometry x="45" y="70" width="10" height="190" as="geometry" />
        </mxCell>
        <mxCell id="aM9ryv3xv72pqoxQDRHE-5" value="HambientoState" style="shape=umlLifeline;perimeter=lifelinePerimeter;whiteSpace=wrap;html=1;container=0;dropTarget=0;collapsible=0;recursiveResize=0;outlineConnect=0;portConstraint=eastwest;newEdgeStyle={&quot;edgeStyle&quot;:&quot;elbowEdgeStyle&quot;,&quot;elbow&quot;:&quot;vertical&quot;,&quot;curved&quot;:0,&quot;rounded&quot;:0};" parent="1" vertex="1">
          <mxGeometry x="220" y="40" width="100" height="300" as="geometry" />
        </mxCell>
        <mxCell id="aM9ryv3xv72pqoxQDRHE-6" value="" style="html=1;points=[];perimeter=orthogonalPerimeter;outlineConnect=0;targetShapes=umlLifeline;portConstraint=eastwest;newEdgeStyle={&quot;edgeStyle&quot;:&quot;elbowEdgeStyle&quot;,&quot;elbow&quot;:&quot;vertical&quot;,&quot;curved&quot;:0,&quot;rounded&quot;:0};" parent="aM9ryv3xv72pqoxQDRHE-5" vertex="1">
          <mxGeometry x="45" y="80" width="10" height="170" as="geometry" />
        </mxCell>
        <mxCell id="6V_-hNrpRo6h4fvFbxZA-5" value="" style="endArrow=classic;html=1;rounded=0;" edge="1" parent="aM9ryv3xv72pqoxQDRHE-5" source="aM9ryv3xv72pqoxQDRHE-6">
          <mxGeometry width="50" height="50" relative="1" as="geometry">
            <mxPoint x="60" y="140" as="sourcePoint" />
            <mxPoint x="60" y="180" as="targetPoint" />
            <Array as="points">
              <mxPoint x="80" y="140" />
              <mxPoint x="120" y="140" />
              <mxPoint x="120" y="180" />
            </Array>
          </mxGeometry>
        </mxCell>
        <mxCell id="6V_-hNrpRo6h4fvFbxZA-6" value="setEstado()" style="edgeLabel;html=1;align=center;verticalAlign=middle;resizable=0;points=[];" vertex="1" connectable="0" parent="6V_-hNrpRo6h4fvFbxZA-5">
          <mxGeometry x="0.3014" relative="1" as="geometry">
            <mxPoint as="offset" />
          </mxGeometry>
        </mxCell>
        <mxCell id="aM9ryv3xv72pqoxQDRHE-7" value="darDeComer()" style="html=1;verticalAlign=bottom;endArrow=block;edgeStyle=elbowEdgeStyle;elbow=vertical;curved=0;rounded=0;" parent="1" source="aM9ryv3xv72pqoxQDRHE-2" target="aM9ryv3xv72pqoxQDRHE-6" edge="1">
          <mxGeometry relative="1" as="geometry">
            <mxPoint x="195" y="130" as="sourcePoint" />
            <Array as="points">
              <mxPoint x="180" y="120" />
            </Array>
          </mxGeometry>
        </mxCell>
        <mxCell id="aM9ryv3xv72pqoxQDRHE-8" value="FELIZ" style="html=1;verticalAlign=bottom;endArrow=open;dashed=1;endSize=8;edgeStyle=elbowEdgeStyle;elbow=vertical;curved=0;rounded=0;" parent="1" source="aM9ryv3xv72pqoxQDRHE-6" target="aM9ryv3xv72pqoxQDRHE-2" edge="1">
          <mxGeometry relative="1" as="geometry">
            <mxPoint x="195" y="205" as="targetPoint" />
            <Array as="points">
              <mxPoint x="180" y="250" />
            </Array>
          </mxGeometry>
        </mxCell>
        <mxCell id="6V_-hNrpRo6h4fvFbxZA-7" value="" style="rounded=0;whiteSpace=wrap;html=1;" vertex="1" parent="1">
          <mxGeometry x="270" y="180" width="10" height="50" as="geometry" />
        </mxCell>
        <mxCell id="6V_-hNrpRo6h4fvFbxZA-8" value="Tamagotchi" style="shape=umlLifeline;perimeter=lifelinePerimeter;whiteSpace=wrap;html=1;container=0;dropTarget=0;collapsible=0;recursiveResize=0;outlineConnect=0;portConstraint=eastwest;newEdgeStyle={&quot;edgeStyle&quot;:&quot;elbowEdgeStyle&quot;,&quot;elbow&quot;:&quot;vertical&quot;,&quot;curved&quot;:0,&quot;rounded&quot;:0};" vertex="1" parent="1">
          <mxGeometry x="470" y="30" width="100" height="300" as="geometry" />
        </mxCell>
        <mxCell id="6V_-hNrpRo6h4fvFbxZA-9" value="" style="html=1;points=[];perimeter=orthogonalPerimeter;outlineConnect=0;targetShapes=umlLifeline;portConstraint=eastwest;newEdgeStyle={&quot;edgeStyle&quot;:&quot;elbowEdgeStyle&quot;,&quot;elbow&quot;:&quot;vertical&quot;,&quot;curved&quot;:0,&quot;rounded&quot;:0};" vertex="1" parent="6V_-hNrpRo6h4fvFbxZA-8">
          <mxGeometry x="45" y="70" width="10" height="190" as="geometry" />
        </mxCell>
        <mxCell id="6V_-hNrpRo6h4fvFbxZA-10" value="SedientoState" style="shape=umlLifeline;perimeter=lifelinePerimeter;whiteSpace=wrap;html=1;container=0;dropTarget=0;collapsible=0;recursiveResize=0;outlineConnect=0;portConstraint=eastwest;newEdgeStyle={&quot;edgeStyle&quot;:&quot;elbowEdgeStyle&quot;,&quot;elbow&quot;:&quot;vertical&quot;,&quot;curved&quot;:0,&quot;rounded&quot;:0};" vertex="1" parent="1">
          <mxGeometry x="650" y="30" width="100" height="300" as="geometry" />
        </mxCell>
        <mxCell id="6V_-hNrpRo6h4fvFbxZA-11" value="" style="html=1;points=[];perimeter=orthogonalPerimeter;outlineConnect=0;targetShapes=umlLifeline;portConstraint=eastwest;newEdgeStyle={&quot;edgeStyle&quot;:&quot;elbowEdgeStyle&quot;,&quot;elbow&quot;:&quot;vertical&quot;,&quot;curved&quot;:0,&quot;rounded&quot;:0};" vertex="1" parent="6V_-hNrpRo6h4fvFbxZA-10">
          <mxGeometry x="45" y="80" width="10" height="170" as="geometry" />
        </mxCell>
        <mxCell id="6V_-hNrpRo6h4fvFbxZA-12" value="" style="endArrow=classic;html=1;rounded=0;" edge="1" parent="6V_-hNrpRo6h4fvFbxZA-10" source="6V_-hNrpRo6h4fvFbxZA-11">
          <mxGeometry width="50" height="50" relative="1" as="geometry">
            <mxPoint x="60" y="140" as="sourcePoint" />
            <mxPoint x="60" y="180" as="targetPoint" />
            <Array as="points">
              <mxPoint x="80" y="140" />
              <mxPoint x="120" y="140" />
              <mxPoint x="120" y="180" />
            </Array>
          </mxGeometry>
        </mxCell>
        <mxCell id="6V_-hNrpRo6h4fvFbxZA-13" value="setEstado()" style="edgeLabel;html=1;align=center;verticalAlign=middle;resizable=0;points=[];" vertex="1" connectable="0" parent="6V_-hNrpRo6h4fvFbxZA-12">
          <mxGeometry x="0.3014" relative="1" as="geometry">
            <mxPoint as="offset" />
          </mxGeometry>
        </mxCell>
        <mxCell id="6V_-hNrpRo6h4fvFbxZA-14" value="pegarle()" style="html=1;verticalAlign=bottom;endArrow=block;edgeStyle=elbowEdgeStyle;elbow=vertical;curved=0;rounded=0;" edge="1" parent="1" source="6V_-hNrpRo6h4fvFbxZA-9" target="6V_-hNrpRo6h4fvFbxZA-11">
          <mxGeometry relative="1" as="geometry">
            <mxPoint x="625" y="120" as="sourcePoint" />
            <Array as="points">
              <mxPoint x="610" y="110" />
            </Array>
          </mxGeometry>
        </mxCell>
        <mxCell id="6V_-hNrpRo6h4fvFbxZA-15" value="TRISTE" style="html=1;verticalAlign=bottom;endArrow=open;dashed=1;endSize=8;edgeStyle=elbowEdgeStyle;elbow=vertical;curved=0;rounded=0;" edge="1" parent="1" source="6V_-hNrpRo6h4fvFbxZA-11" target="6V_-hNrpRo6h4fvFbxZA-9">
          <mxGeometry relative="1" as="geometry">
            <mxPoint x="625" y="195" as="targetPoint" />
            <Array as="points">
              <mxPoint x="610" y="240" />
            </Array>
          </mxGeometry>
        </mxCell>
        <mxCell id="6V_-hNrpRo6h4fvFbxZA-16" value="" style="rounded=0;whiteSpace=wrap;html=1;" vertex="1" parent="1">
          <mxGeometry x="700" y="170" width="10" height="50" as="geometry" />
        </mxCell>
        <mxCell id="6V_-hNrpRo6h4fvFbxZA-17" value="Tamagotchi" style="shape=umlLifeline;perimeter=lifelinePerimeter;whiteSpace=wrap;html=1;container=0;dropTarget=0;collapsible=0;recursiveResize=0;outlineConnect=0;portConstraint=eastwest;newEdgeStyle={&quot;edgeStyle&quot;:&quot;elbowEdgeStyle&quot;,&quot;elbow&quot;:&quot;vertical&quot;,&quot;curved&quot;:0,&quot;rounded&quot;:0};" vertex="1" parent="1">
          <mxGeometry x="50" y="380" width="100" height="300" as="geometry" />
        </mxCell>
        <mxCell id="6V_-hNrpRo6h4fvFbxZA-18" value="" style="html=1;points=[];perimeter=orthogonalPerimeter;outlineConnect=0;targetShapes=umlLifeline;portConstraint=eastwest;newEdgeStyle={&quot;edgeStyle&quot;:&quot;elbowEdgeStyle&quot;,&quot;elbow&quot;:&quot;vertical&quot;,&quot;curved&quot;:0,&quot;rounded&quot;:0};" vertex="1" parent="6V_-hNrpRo6h4fvFbxZA-17">
          <mxGeometry x="45" y="70" width="10" height="170" as="geometry" />
        </mxCell>
        <mxCell id="6V_-hNrpRo6h4fvFbxZA-23" value="darDeTomar()" style="html=1;verticalAlign=bottom;endArrow=block;edgeStyle=elbowEdgeStyle;elbow=vertical;curved=0;rounded=0;" edge="1" parent="1">
          <mxGeometry x="-0.0067" relative="1" as="geometry">
            <mxPoint x="-13" y="549" as="sourcePoint" />
            <Array as="points">
              <mxPoint x="72" y="549" />
            </Array>
            <mxPoint x="95" y="549" as="targetPoint" />
            <mxPoint as="offset" />
          </mxGeometry>
        </mxCell>
        <mxCell id="6V_-hNrpRo6h4fvFbxZA-24" value="TristeStatus" style="html=1;verticalAlign=bottom;endArrow=open;dashed=1;endSize=8;edgeStyle=elbowEdgeStyle;elbow=horizontal;curved=0;rounded=0;" edge="1" source="6V_-hNrpRo6h4fvFbxZA-18" parent="1">
          <mxGeometry x="0.0065" relative="1" as="geometry">
            <mxPoint x="-17" y="509" as="targetPoint" />
            <Array as="points">
              <mxPoint x="78" y="509" />
            </Array>
            <mxPoint x="152.99999999999977" y="509" as="sourcePoint" />
            <mxPoint as="offset" />
          </mxGeometry>
        </mxCell>
        <mxCell id="6V_-hNrpRo6h4fvFbxZA-25" value="" style="rounded=0;whiteSpace=wrap;html=1;" vertex="1" parent="1">
          <mxGeometry x="100" y="551" width="10" height="50" as="geometry" />
        </mxCell>
        <mxCell id="6V_-hNrpRo6h4fvFbxZA-32" value="" style="shape=umlLifeline;perimeter=lifelinePerimeter;whiteSpace=wrap;html=1;container=1;dropTarget=0;collapsible=0;recursiveResize=0;outlineConnect=0;portConstraint=eastwest;newEdgeStyle={&quot;curved&quot;:0,&quot;rounded&quot;:0};participant=umlActor;" vertex="1" parent="1">
          <mxGeometry x="-30" y="372" width="20" height="300" as="geometry" />
        </mxCell>
        <mxCell id="6V_-hNrpRo6h4fvFbxZA-33" value="" style="html=1;points=[[0,0,0,0,5],[0,1,0,0,-5],[1,0,0,0,5],[1,1,0,0,-5]];perimeter=orthogonalPerimeter;outlineConnect=0;targetShapes=umlLifeline;portConstraint=eastwest;newEdgeStyle={&quot;curved&quot;:0,&quot;rounded&quot;:0};" vertex="1" parent="6V_-hNrpRo6h4fvFbxZA-32">
          <mxGeometry x="5" y="80" width="10" height="170" as="geometry" />
        </mxCell>
        <mxCell id="6V_-hNrpRo6h4fvFbxZA-35" value="getStatus()" style="html=1;verticalAlign=bottom;endArrow=block;edgeStyle=elbowEdgeStyle;elbow=vertical;curved=0;rounded=0;" edge="1" parent="1" target="6V_-hNrpRo6h4fvFbxZA-18">
          <mxGeometry relative="1" as="geometry">
            <mxPoint x="-13" y="463" as="sourcePoint" />
            <Array as="points">
              <mxPoint x="72" y="463" />
            </Array>
            <mxPoint x="156.49999999999977" y="463" as="targetPoint" />
          </mxGeometry>
        </mxCell>
        <mxCell id="6V_-hNrpRo6h4fvFbxZA-21" value="" style="endArrow=classic;html=1;rounded=0;entryX=1.031;entryY=0.878;entryDx=0;entryDy=0;entryPerimeter=0;" edge="1" parent="1">
          <mxGeometry width="50" height="50" relative="1" as="geometry">
            <mxPoint x="112.00000000000011" y="555" as="sourcePoint" />
            <mxPoint x="111.30999999999995" y="593.9000000000001" as="targetPoint" />
            <Array as="points">
              <mxPoint x="137" y="555" />
              <mxPoint x="177" y="555" />
              <mxPoint x="177" y="595" />
            </Array>
          </mxGeometry>
        </mxCell>
        <mxCell id="6V_-hNrpRo6h4fvFbxZA-22" value="setEstado(FelizState)" style="edgeLabel;html=1;align=center;verticalAlign=middle;resizable=0;points=[];" vertex="1" connectable="0" parent="6V_-hNrpRo6h4fvFbxZA-21">
          <mxGeometry x="0.3014" relative="1" as="geometry">
            <mxPoint as="offset" />
          </mxGeometry>
        </mxCell>
        <mxCell id="6V_-hNrpRo6h4fvFbxZA-37" value="FelizStatus" style="html=1;verticalAlign=bottom;endArrow=open;dashed=1;endSize=8;edgeStyle=elbowEdgeStyle;elbow=horizontal;curved=0;rounded=0;" edge="1" parent="1">
          <mxGeometry x="-0.003" relative="1" as="geometry">
            <mxPoint x="-20" y="620" as="targetPoint" />
            <Array as="points">
              <mxPoint x="75" y="620" />
            </Array>
            <mxPoint x="92" y="620" as="sourcePoint" />
            <mxPoint as="offset" />
          </mxGeometry>
        </mxCell>
        <mxCell id="6V_-hNrpRo6h4fvFbxZA-38" value="Tamagotchi" style="shape=umlLifeline;perimeter=lifelinePerimeter;whiteSpace=wrap;html=1;container=0;dropTarget=0;collapsible=0;recursiveResize=0;outlineConnect=0;portConstraint=eastwest;newEdgeStyle={&quot;edgeStyle&quot;:&quot;elbowEdgeStyle&quot;,&quot;elbow&quot;:&quot;vertical&quot;,&quot;curved&quot;:0,&quot;rounded&quot;:0};" vertex="1" parent="1">
          <mxGeometry x="327" y="376" width="100" height="300" as="geometry" />
        </mxCell>
        <mxCell id="6V_-hNrpRo6h4fvFbxZA-39" value="" style="html=1;points=[];perimeter=orthogonalPerimeter;outlineConnect=0;targetShapes=umlLifeline;portConstraint=eastwest;newEdgeStyle={&quot;edgeStyle&quot;:&quot;elbowEdgeStyle&quot;,&quot;elbow&quot;:&quot;vertical&quot;,&quot;curved&quot;:0,&quot;rounded&quot;:0};" vertex="1" parent="6V_-hNrpRo6h4fvFbxZA-38">
          <mxGeometry x="45" y="70" width="10" height="170" as="geometry" />
        </mxCell>
        <mxCell id="6V_-hNrpRo6h4fvFbxZA-40" value="pegarle()" style="html=1;verticalAlign=bottom;endArrow=block;edgeStyle=elbowEdgeStyle;elbow=vertical;curved=0;rounded=0;" edge="1" parent="1">
          <mxGeometry x="-0.0067" relative="1" as="geometry">
            <mxPoint x="264" y="545" as="sourcePoint" />
            <Array as="points">
              <mxPoint x="349" y="545" />
            </Array>
            <mxPoint x="372" y="545" as="targetPoint" />
            <mxPoint as="offset" />
          </mxGeometry>
        </mxCell>
        <mxCell id="6V_-hNrpRo6h4fvFbxZA-41" value="SedientoStatus" style="html=1;verticalAlign=bottom;endArrow=open;dashed=1;endSize=8;edgeStyle=elbowEdgeStyle;elbow=horizontal;curved=0;rounded=0;" edge="1" source="6V_-hNrpRo6h4fvFbxZA-39" parent="1">
          <mxGeometry x="0.0065" relative="1" as="geometry">
            <mxPoint x="260" y="505" as="targetPoint" />
            <Array as="points">
              <mxPoint x="355" y="505" />
            </Array>
            <mxPoint x="429.9999999999998" y="505" as="sourcePoint" />
            <mxPoint as="offset" />
          </mxGeometry>
        </mxCell>
        <mxCell id="6V_-hNrpRo6h4fvFbxZA-42" value="" style="rounded=0;whiteSpace=wrap;html=1;" vertex="1" parent="1">
          <mxGeometry x="377" y="547" width="10" height="50" as="geometry" />
        </mxCell>
        <mxCell id="6V_-hNrpRo6h4fvFbxZA-43" value="" style="shape=umlLifeline;perimeter=lifelinePerimeter;whiteSpace=wrap;html=1;container=1;dropTarget=0;collapsible=0;recursiveResize=0;outlineConnect=0;portConstraint=eastwest;newEdgeStyle={&quot;curved&quot;:0,&quot;rounded&quot;:0};participant=umlActor;" vertex="1" parent="1">
          <mxGeometry x="247" y="368" width="20" height="300" as="geometry" />
        </mxCell>
        <mxCell id="6V_-hNrpRo6h4fvFbxZA-44" value="" style="html=1;points=[[0,0,0,0,5],[0,1,0,0,-5],[1,0,0,0,5],[1,1,0,0,-5]];perimeter=orthogonalPerimeter;outlineConnect=0;targetShapes=umlLifeline;portConstraint=eastwest;newEdgeStyle={&quot;curved&quot;:0,&quot;rounded&quot;:0};" vertex="1" parent="6V_-hNrpRo6h4fvFbxZA-43">
          <mxGeometry x="5" y="80" width="10" height="170" as="geometry" />
        </mxCell>
        <mxCell id="6V_-hNrpRo6h4fvFbxZA-45" value="getStatus()" style="html=1;verticalAlign=bottom;endArrow=block;edgeStyle=elbowEdgeStyle;elbow=vertical;curved=0;rounded=0;" edge="1" target="6V_-hNrpRo6h4fvFbxZA-39" parent="1">
          <mxGeometry relative="1" as="geometry">
            <mxPoint x="264" y="459" as="sourcePoint" />
            <Array as="points">
              <mxPoint x="349" y="459" />
            </Array>
            <mxPoint x="433.4999999999998" y="459" as="targetPoint" />
          </mxGeometry>
        </mxCell>
        <mxCell id="6V_-hNrpRo6h4fvFbxZA-46" value="" style="endArrow=classic;html=1;rounded=0;entryX=1.031;entryY=0.878;entryDx=0;entryDy=0;entryPerimeter=0;" edge="1" parent="1">
          <mxGeometry width="50" height="50" relative="1" as="geometry">
            <mxPoint x="389.0000000000001" y="551" as="sourcePoint" />
            <mxPoint x="388.30999999999995" y="589.9000000000001" as="targetPoint" />
            <Array as="points">
              <mxPoint x="414" y="551" />
              <mxPoint x="454" y="551" />
              <mxPoint x="454" y="591" />
            </Array>
          </mxGeometry>
        </mxCell>
        <mxCell id="6V_-hNrpRo6h4fvFbxZA-47" value="setEstado(FelizState)" style="edgeLabel;html=1;align=center;verticalAlign=middle;resizable=0;points=[];" vertex="1" connectable="0" parent="6V_-hNrpRo6h4fvFbxZA-46">
          <mxGeometry x="0.3014" relative="1" as="geometry">
            <mxPoint as="offset" />
          </mxGeometry>
        </mxCell>
        <mxCell id="6V_-hNrpRo6h4fvFbxZA-48" value="TristeStatus" style="html=1;verticalAlign=bottom;endArrow=open;dashed=1;endSize=8;edgeStyle=elbowEdgeStyle;elbow=horizontal;curved=0;rounded=0;" edge="1" parent="1">
          <mxGeometry relative="1" as="geometry">
            <mxPoint x="257" y="616" as="targetPoint" />
            <Array as="points">
              <mxPoint x="352" y="616" />
            </Array>
            <mxPoint x="369" y="616" as="sourcePoint" />
          </mxGeometry>
        </mxCell>
        <mxCell id="6V_-hNrpRo6h4fvFbxZA-49" value="Tamagotchi" style="shape=umlLifeline;perimeter=lifelinePerimeter;whiteSpace=wrap;html=1;container=0;dropTarget=0;collapsible=0;recursiveResize=0;outlineConnect=0;portConstraint=eastwest;newEdgeStyle={&quot;edgeStyle&quot;:&quot;elbowEdgeStyle&quot;,&quot;elbow&quot;:&quot;vertical&quot;,&quot;curved&quot;:0,&quot;rounded&quot;:0};" vertex="1" parent="1">
          <mxGeometry x="600" y="376" width="100" height="300" as="geometry" />
        </mxCell>
        <mxCell id="6V_-hNrpRo6h4fvFbxZA-50" value="" style="html=1;points=[];perimeter=orthogonalPerimeter;outlineConnect=0;targetShapes=umlLifeline;portConstraint=eastwest;newEdgeStyle={&quot;edgeStyle&quot;:&quot;elbowEdgeStyle&quot;,&quot;elbow&quot;:&quot;vertical&quot;,&quot;curved&quot;:0,&quot;rounded&quot;:0};" vertex="1" parent="6V_-hNrpRo6h4fvFbxZA-49">
          <mxGeometry x="45" y="70" width="10" height="170" as="geometry" />
        </mxCell>
        <mxCell id="6V_-hNrpRo6h4fvFbxZA-51" value="darDeComer()" style="html=1;verticalAlign=bottom;endArrow=block;edgeStyle=elbowEdgeStyle;elbow=vertical;curved=0;rounded=0;" edge="1" parent="1">
          <mxGeometry x="-0.0067" relative="1" as="geometry">
            <mxPoint x="537" y="545" as="sourcePoint" />
            <Array as="points">
              <mxPoint x="622" y="545" />
            </Array>
            <mxPoint x="645" y="545" as="targetPoint" />
            <mxPoint as="offset" />
          </mxGeometry>
        </mxCell>
        <mxCell id="6V_-hNrpRo6h4fvFbxZA-52" value="HambrientoStatus" style="html=1;verticalAlign=bottom;endArrow=open;dashed=1;endSize=8;edgeStyle=elbowEdgeStyle;elbow=horizontal;curved=0;rounded=0;" edge="1" source="6V_-hNrpRo6h4fvFbxZA-50" parent="1">
          <mxGeometry x="0.0065" relative="1" as="geometry">
            <mxPoint x="533" y="505" as="targetPoint" />
            <Array as="points">
              <mxPoint x="628" y="505" />
            </Array>
            <mxPoint x="702.9999999999998" y="505" as="sourcePoint" />
            <mxPoint as="offset" />
          </mxGeometry>
        </mxCell>
        <mxCell id="6V_-hNrpRo6h4fvFbxZA-53" value="" style="rounded=0;whiteSpace=wrap;html=1;" vertex="1" parent="1">
          <mxGeometry x="650" y="547" width="10" height="50" as="geometry" />
        </mxCell>
        <mxCell id="6V_-hNrpRo6h4fvFbxZA-54" value="" style="shape=umlLifeline;perimeter=lifelinePerimeter;whiteSpace=wrap;html=1;container=1;dropTarget=0;collapsible=0;recursiveResize=0;outlineConnect=0;portConstraint=eastwest;newEdgeStyle={&quot;curved&quot;:0,&quot;rounded&quot;:0};participant=umlActor;" vertex="1" parent="1">
          <mxGeometry x="520" y="368" width="20" height="300" as="geometry" />
        </mxCell>
        <mxCell id="6V_-hNrpRo6h4fvFbxZA-55" value="" style="html=1;points=[[0,0,0,0,5],[0,1,0,0,-5],[1,0,0,0,5],[1,1,0,0,-5]];perimeter=orthogonalPerimeter;outlineConnect=0;targetShapes=umlLifeline;portConstraint=eastwest;newEdgeStyle={&quot;curved&quot;:0,&quot;rounded&quot;:0};" vertex="1" parent="6V_-hNrpRo6h4fvFbxZA-54">
          <mxGeometry x="5" y="80" width="10" height="170" as="geometry" />
        </mxCell>
        <mxCell id="6V_-hNrpRo6h4fvFbxZA-56" value="getStatus()" style="html=1;verticalAlign=bottom;endArrow=block;edgeStyle=elbowEdgeStyle;elbow=vertical;curved=0;rounded=0;" edge="1" target="6V_-hNrpRo6h4fvFbxZA-50" parent="1">
          <mxGeometry relative="1" as="geometry">
            <mxPoint x="537" y="459" as="sourcePoint" />
            <Array as="points">
              <mxPoint x="622" y="459" />
            </Array>
            <mxPoint x="706.4999999999998" y="459" as="targetPoint" />
          </mxGeometry>
        </mxCell>
        <mxCell id="6V_-hNrpRo6h4fvFbxZA-57" value="" style="endArrow=classic;html=1;rounded=0;entryX=1.031;entryY=0.878;entryDx=0;entryDy=0;entryPerimeter=0;" edge="1" parent="1">
          <mxGeometry width="50" height="50" relative="1" as="geometry">
            <mxPoint x="662.0000000000001" y="551" as="sourcePoint" />
            <mxPoint x="661.31" y="589.9000000000001" as="targetPoint" />
            <Array as="points">
              <mxPoint x="687" y="551" />
              <mxPoint x="727" y="551" />
              <mxPoint x="727" y="591" />
            </Array>
          </mxGeometry>
        </mxCell>
        <mxCell id="6V_-hNrpRo6h4fvFbxZA-58" value="setEstado(FelizState)" style="edgeLabel;html=1;align=center;verticalAlign=middle;resizable=0;points=[];" vertex="1" connectable="0" parent="6V_-hNrpRo6h4fvFbxZA-57">
          <mxGeometry x="0.3014" relative="1" as="geometry">
            <mxPoint as="offset" />
          </mxGeometry>
        </mxCell>
        <mxCell id="6V_-hNrpRo6h4fvFbxZA-59" value="FelizStatus" style="html=1;verticalAlign=bottom;endArrow=open;dashed=1;endSize=8;edgeStyle=elbowEdgeStyle;elbow=horizontal;curved=0;rounded=0;" edge="1" parent="1">
          <mxGeometry relative="1" as="geometry">
            <mxPoint x="530" y="616" as="targetPoint" />
            <Array as="points">
              <mxPoint x="625" y="616" />
            </Array>
            <mxPoint x="642" y="616" as="sourcePoint" />
          </mxGeometry>
        </mxCell>
      </root>
    </mxGraphModel>
  </diagram>
</mxfile>
